<mxfile host="app.diagrams.net" modified="2023-01-29T17:54:30.547Z" agent="5.0 (Windows NT 10.0; Win64; x64) AppleWebKit/537.36 (KHTML, like Gecko) Chrome/109.0.0.0 Safari/537.36" etag="hLMoG99zzaR41UFwKKXR" version="20.8.13" type="github">
  <diagram name="Page-1" id="O6VxdMmnrGh-DjxF60c8">
    <mxGraphModel dx="2219" dy="1400" grid="1" gridSize="10" guides="1" tooltips="1" connect="1" arrows="1" fold="1" page="1" pageScale="1" pageWidth="1169" pageHeight="827" math="0" shadow="0">
      <root>
        <mxCell id="0" />
        <mxCell id="1" parent="0" />
        <mxCell id="9rxSLe53cnxC0N_pLlHW-4" value="Auth_permission" style="rounded=0;whiteSpace=wrap;html=1;" vertex="1" parent="1">
          <mxGeometry x="40" y="40" width="120" height="30" as="geometry" />
        </mxCell>
        <mxCell id="9rxSLe53cnxC0N_pLlHW-5" style="edgeStyle=orthogonalEdgeStyle;rounded=0;orthogonalLoop=1;jettySize=auto;html=1;exitX=0.5;exitY=1;exitDx=0;exitDy=0;" edge="1" parent="1">
          <mxGeometry relative="1" as="geometry">
            <mxPoint x="100" y="450" as="sourcePoint" />
            <mxPoint x="100" y="450" as="targetPoint" />
          </mxGeometry>
        </mxCell>
        <mxCell id="9rxSLe53cnxC0N_pLlHW-7" value="Auth_group" style="rounded=0;whiteSpace=wrap;html=1;" vertex="1" parent="1">
          <mxGeometry x="40" y="260" width="120" height="20" as="geometry" />
        </mxCell>
        <mxCell id="9rxSLe53cnxC0N_pLlHW-8" value="Auth_group_permission" style="rounded=0;whiteSpace=wrap;html=1;" vertex="1" parent="1">
          <mxGeometry x="320" y="440" width="120" height="20" as="geometry" />
        </mxCell>
        <mxCell id="9rxSLe53cnxC0N_pLlHW-9" value="" style="endArrow=none;html=1;rounded=0;" edge="1" parent="1">
          <mxGeometry width="50" height="50" relative="1" as="geometry">
            <mxPoint x="160" y="120" as="sourcePoint" />
            <mxPoint x="120" y="74" as="targetPoint" />
            <Array as="points">
              <mxPoint x="120" y="120" />
            </Array>
          </mxGeometry>
        </mxCell>
        <mxCell id="9rxSLe53cnxC0N_pLlHW-10" value="" style="endArrow=none;html=1;rounded=0;" edge="1" parent="1">
          <mxGeometry width="50" height="50" relative="1" as="geometry">
            <mxPoint x="280" y="120" as="sourcePoint" />
            <mxPoint x="160" y="120" as="targetPoint" />
          </mxGeometry>
        </mxCell>
        <mxCell id="9rxSLe53cnxC0N_pLlHW-11" value="" style="endArrow=none;html=1;rounded=0;" edge="1" parent="1" target="9rxSLe53cnxC0N_pLlHW-12">
          <mxGeometry width="50" height="50" relative="1" as="geometry">
            <mxPoint x="280" y="320" as="sourcePoint" />
            <mxPoint x="280" y="120" as="targetPoint" />
          </mxGeometry>
        </mxCell>
        <mxCell id="9rxSLe53cnxC0N_pLlHW-12" value="" style="rhombus;whiteSpace=wrap;html=1;" vertex="1" parent="1">
          <mxGeometry x="240" y="250" width="80" height="80" as="geometry" />
        </mxCell>
        <mxCell id="9rxSLe53cnxC0N_pLlHW-13" value="" style="endArrow=none;html=1;rounded=0;" edge="1" parent="1" source="9rxSLe53cnxC0N_pLlHW-12">
          <mxGeometry width="50" height="50" relative="1" as="geometry">
            <mxPoint x="390" y="320" as="sourcePoint" />
            <mxPoint x="280" y="120" as="targetPoint" />
          </mxGeometry>
        </mxCell>
        <mxCell id="9rxSLe53cnxC0N_pLlHW-14" value="" style="endArrow=none;html=1;rounded=0;entryX=0.5;entryY=1;entryDx=0;entryDy=0;exitX=0.143;exitY=0.06;exitDx=0;exitDy=0;exitPerimeter=0;" edge="1" parent="1" source="9rxSLe53cnxC0N_pLlHW-8" target="9rxSLe53cnxC0N_pLlHW-12">
          <mxGeometry width="50" height="50" relative="1" as="geometry">
            <mxPoint x="320" y="430" as="sourcePoint" />
            <mxPoint x="440" y="270" as="targetPoint" />
          </mxGeometry>
        </mxCell>
        <mxCell id="9rxSLe53cnxC0N_pLlHW-16" value="" style="endArrow=none;html=1;rounded=0;entryX=0.33;entryY=1.09;entryDx=0;entryDy=0;entryPerimeter=0;" edge="1" parent="1" target="9rxSLe53cnxC0N_pLlHW-7">
          <mxGeometry width="50" height="50" relative="1" as="geometry">
            <mxPoint x="80" y="370" as="sourcePoint" />
            <mxPoint x="80" y="320" as="targetPoint" />
          </mxGeometry>
        </mxCell>
        <mxCell id="9rxSLe53cnxC0N_pLlHW-17" value="" style="endArrow=none;html=1;rounded=0;exitX=0;exitY=0.5;exitDx=0;exitDy=0;" edge="1" parent="1" source="9rxSLe53cnxC0N_pLlHW-18">
          <mxGeometry width="50" height="50" relative="1" as="geometry">
            <mxPoint x="170" y="480" as="sourcePoint" />
            <mxPoint x="80" y="370" as="targetPoint" />
          </mxGeometry>
        </mxCell>
        <mxCell id="9rxSLe53cnxC0N_pLlHW-18" value="" style="rhombus;whiteSpace=wrap;html=1;" vertex="1" parent="1">
          <mxGeometry x="150" y="330" width="80" height="80" as="geometry" />
        </mxCell>
        <mxCell id="9rxSLe53cnxC0N_pLlHW-19" value="" style="endArrow=none;html=1;rounded=0;entryX=0.5;entryY=1;entryDx=0;entryDy=0;" edge="1" parent="1" target="9rxSLe53cnxC0N_pLlHW-18">
          <mxGeometry width="50" height="50" relative="1" as="geometry">
            <mxPoint x="360" y="410" as="sourcePoint" />
            <mxPoint x="440" y="270" as="targetPoint" />
          </mxGeometry>
        </mxCell>
        <mxCell id="9rxSLe53cnxC0N_pLlHW-21" value="" style="endArrow=none;html=1;rounded=0;entryX=0.343;entryY=0.06;entryDx=0;entryDy=0;entryPerimeter=0;" edge="1" parent="1" target="9rxSLe53cnxC0N_pLlHW-8">
          <mxGeometry width="50" height="50" relative="1" as="geometry">
            <mxPoint x="360" y="410" as="sourcePoint" />
            <mxPoint x="400" y="490" as="targetPoint" />
          </mxGeometry>
        </mxCell>
        <mxCell id="9rxSLe53cnxC0N_pLlHW-22" value="Auth_user" style="rounded=0;whiteSpace=wrap;html=1;" vertex="1" parent="1">
          <mxGeometry x="340" y="680" width="160" height="20" as="geometry" />
        </mxCell>
        <mxCell id="9rxSLe53cnxC0N_pLlHW-26" style="edgeStyle=orthogonalEdgeStyle;rounded=0;orthogonalLoop=1;jettySize=auto;html=1;exitX=0.5;exitY=1;exitDx=0;exitDy=0;" edge="1" parent="1" source="9rxSLe53cnxC0N_pLlHW-22" target="9rxSLe53cnxC0N_pLlHW-22">
          <mxGeometry relative="1" as="geometry" />
        </mxCell>
        <mxCell id="9rxSLe53cnxC0N_pLlHW-30" value="Channel" style="rounded=0;whiteSpace=wrap;html=1;" vertex="1" parent="1">
          <mxGeometry x="670" y="120" width="120" height="30" as="geometry" />
        </mxCell>
        <mxCell id="9rxSLe53cnxC0N_pLlHW-31" value="Channel_subscription" style="whiteSpace=wrap;html=1;rounded=0;" vertex="1" parent="1">
          <mxGeometry x="670" y="215" width="120" height="25" as="geometry" />
        </mxCell>
        <mxCell id="9rxSLe53cnxC0N_pLlHW-33" value="" style="rhombus;whiteSpace=wrap;html=1;rounded=0;" vertex="1" parent="1">
          <mxGeometry x="690" y="292.5" width="80" height="67.5" as="geometry" />
        </mxCell>
        <mxCell id="9rxSLe53cnxC0N_pLlHW-35" value="content_type" style="whiteSpace=wrap;html=1;rounded=0;" vertex="1" parent="1">
          <mxGeometry x="680" y="420" width="110" height="30" as="geometry" />
        </mxCell>
        <mxCell id="9rxSLe53cnxC0N_pLlHW-37" value="" style="endArrow=none;html=1;rounded=0;entryX=0.44;entryY=-0.127;entryDx=0;entryDy=0;entryPerimeter=0;exitX=0.5;exitY=1;exitDx=0;exitDy=0;" edge="1" parent="1" source="9rxSLe53cnxC0N_pLlHW-33" target="9rxSLe53cnxC0N_pLlHW-35">
          <mxGeometry width="50" height="50" relative="1" as="geometry">
            <mxPoint x="390" y="340" as="sourcePoint" />
            <mxPoint x="440" y="290" as="targetPoint" />
          </mxGeometry>
        </mxCell>
        <mxCell id="9rxSLe53cnxC0N_pLlHW-38" value="" style="endArrow=none;html=1;rounded=0;exitX=0.5;exitY=0;exitDx=0;exitDy=0;" edge="1" parent="1" source="9rxSLe53cnxC0N_pLlHW-33">
          <mxGeometry width="50" height="50" relative="1" as="geometry">
            <mxPoint x="390" y="340" as="sourcePoint" />
            <mxPoint x="730" y="240" as="targetPoint" />
          </mxGeometry>
        </mxCell>
        <mxCell id="9rxSLe53cnxC0N_pLlHW-39" value="" style="endArrow=none;html=1;rounded=0;entryX=0.5;entryY=0;entryDx=0;entryDy=0;exitX=0.5;exitY=1;exitDx=0;exitDy=0;" edge="1" parent="1" source="9rxSLe53cnxC0N_pLlHW-30" target="9rxSLe53cnxC0N_pLlHW-31">
          <mxGeometry width="50" height="50" relative="1" as="geometry">
            <mxPoint x="390" y="340" as="sourcePoint" />
            <mxPoint x="440" y="290" as="targetPoint" />
          </mxGeometry>
        </mxCell>
        <mxCell id="9rxSLe53cnxC0N_pLlHW-41" value="" style="rounded=0;whiteSpace=wrap;html=1;" vertex="1" parent="1">
          <mxGeometry x="510" y="530" width="120" height="30" as="geometry" />
        </mxCell>
        <mxCell id="9rxSLe53cnxC0N_pLlHW-45" value="" style="endArrow=none;html=1;rounded=0;entryX=0.75;entryY=1;entryDx=0;entryDy=0;" edge="1" parent="1">
          <mxGeometry width="50" height="50" relative="1" as="geometry">
            <mxPoint x="530" y="410" as="sourcePoint" />
            <mxPoint x="530" y="360" as="targetPoint" />
          </mxGeometry>
        </mxCell>
        <mxCell id="9rxSLe53cnxC0N_pLlHW-47" value="" style="edgeStyle=orthogonalEdgeStyle;rounded=0;orthogonalLoop=1;jettySize=auto;html=1;" edge="1" parent="1" source="9rxSLe53cnxC0N_pLlHW-46" target="9rxSLe53cnxC0N_pLlHW-41">
          <mxGeometry relative="1" as="geometry" />
        </mxCell>
        <mxCell id="9rxSLe53cnxC0N_pLlHW-46" value="" style="rhombus;whiteSpace=wrap;html=1;" vertex="1" parent="1">
          <mxGeometry x="490" y="400" width="80" height="50" as="geometry" />
        </mxCell>
        <mxCell id="9rxSLe53cnxC0N_pLlHW-48" value="admin_login" style="rounded=0;whiteSpace=wrap;html=1;" vertex="1" parent="1">
          <mxGeometry x="480" y="330" width="120" height="30" as="geometry" />
        </mxCell>
        <mxCell id="9rxSLe53cnxC0N_pLlHW-50" value="video" style="rounded=0;whiteSpace=wrap;html=1;" vertex="1" parent="1">
          <mxGeometry x="80" y="550" width="120" height="30" as="geometry" />
        </mxCell>
        <mxCell id="9rxSLe53cnxC0N_pLlHW-51" value="comment" style="rounded=0;whiteSpace=wrap;html=1;" vertex="1" parent="1">
          <mxGeometry x="80" y="800" width="120" height="30" as="geometry" />
        </mxCell>
        <mxCell id="9rxSLe53cnxC0N_pLlHW-52" value="" style="rhombus;whiteSpace=wrap;html=1;" vertex="1" parent="1">
          <mxGeometry x="90" y="630" width="80" height="40" as="geometry" />
        </mxCell>
        <mxCell id="9rxSLe53cnxC0N_pLlHW-53" value="" style="endArrow=none;html=1;rounded=0;" edge="1" parent="1" target="9rxSLe53cnxC0N_pLlHW-52">
          <mxGeometry width="50" height="50" relative="1" as="geometry">
            <mxPoint x="130" y="580" as="sourcePoint" />
            <mxPoint x="440" y="350" as="targetPoint" />
            <Array as="points" />
          </mxGeometry>
        </mxCell>
        <mxCell id="9rxSLe53cnxC0N_pLlHW-54" value="" style="endArrow=none;html=1;rounded=0;entryX=0.5;entryY=1;entryDx=0;entryDy=0;" edge="1" parent="1" source="9rxSLe53cnxC0N_pLlHW-70" target="9rxSLe53cnxC0N_pLlHW-8">
          <mxGeometry width="50" height="50" relative="1" as="geometry">
            <mxPoint x="390" y="400" as="sourcePoint" />
            <mxPoint x="440" y="350" as="targetPoint" />
          </mxGeometry>
        </mxCell>
        <mxCell id="9rxSLe53cnxC0N_pLlHW-55" value="" style="endArrow=none;html=1;rounded=0;" edge="1" parent="1" target="9rxSLe53cnxC0N_pLlHW-63">
          <mxGeometry width="50" height="50" relative="1" as="geometry">
            <mxPoint x="880" y="690" as="sourcePoint" />
            <mxPoint x="880" y="140" as="targetPoint" />
          </mxGeometry>
        </mxCell>
        <mxCell id="9rxSLe53cnxC0N_pLlHW-56" value="" style="endArrow=none;html=1;rounded=0;exitX=0.37;exitY=0;exitDx=0;exitDy=0;exitPerimeter=0;" edge="1" parent="1" source="9rxSLe53cnxC0N_pLlHW-51">
          <mxGeometry width="50" height="50" relative="1" as="geometry">
            <mxPoint x="75" y="720" as="sourcePoint" />
            <mxPoint x="125" y="670" as="targetPoint" />
          </mxGeometry>
        </mxCell>
        <mxCell id="9rxSLe53cnxC0N_pLlHW-57" value="dislike" style="rounded=0;whiteSpace=wrap;html=1;" vertex="1" parent="1">
          <mxGeometry x="360" y="1180" width="120" height="20" as="geometry" />
        </mxCell>
        <mxCell id="9rxSLe53cnxC0N_pLlHW-58" value="like" style="rounded=0;whiteSpace=wrap;html=1;" vertex="1" parent="1">
          <mxGeometry x="360" y="940" width="120" height="20" as="geometry" />
        </mxCell>
        <mxCell id="9rxSLe53cnxC0N_pLlHW-62" value="" style="endArrow=none;html=1;rounded=0;entryX=1;entryY=0.5;entryDx=0;entryDy=0;" edge="1" parent="1" target="9rxSLe53cnxC0N_pLlHW-30">
          <mxGeometry width="50" height="50" relative="1" as="geometry">
            <mxPoint x="880" y="135" as="sourcePoint" />
            <mxPoint x="380" y="310" as="targetPoint" />
          </mxGeometry>
        </mxCell>
        <mxCell id="9rxSLe53cnxC0N_pLlHW-63" value="" style="rhombus;whiteSpace=wrap;html=1;" vertex="1" parent="1">
          <mxGeometry x="840" y="100" width="80" height="80" as="geometry" />
        </mxCell>
        <mxCell id="9rxSLe53cnxC0N_pLlHW-65" value="" style="endArrow=none;html=1;rounded=0;entryX=1;entryY=0.5;entryDx=0;entryDy=0;" edge="1" parent="1" target="9rxSLe53cnxC0N_pLlHW-22">
          <mxGeometry width="50" height="50" relative="1" as="geometry">
            <mxPoint x="880" y="690" as="sourcePoint" />
            <mxPoint x="430" y="740" as="targetPoint" />
          </mxGeometry>
        </mxCell>
        <mxCell id="9rxSLe53cnxC0N_pLlHW-66" value="" style="endArrow=none;html=1;rounded=0;entryX=0;entryY=1;entryDx=0;entryDy=0;exitX=1;exitY=0.5;exitDx=0;exitDy=0;" edge="1" parent="1" source="9rxSLe53cnxC0N_pLlHW-68" target="9rxSLe53cnxC0N_pLlHW-31">
          <mxGeometry width="50" height="50" relative="1" as="geometry">
            <mxPoint x="660" y="640.800048828125" as="sourcePoint" />
            <mxPoint x="430" y="340" as="targetPoint" />
          </mxGeometry>
        </mxCell>
        <mxCell id="9rxSLe53cnxC0N_pLlHW-67" value="" style="endArrow=none;html=1;rounded=0;" edge="1" parent="1" target="9rxSLe53cnxC0N_pLlHW-68">
          <mxGeometry width="50" height="50" relative="1" as="geometry">
            <mxPoint x="500" y="690" as="sourcePoint" />
            <mxPoint x="590" y="640" as="targetPoint" />
          </mxGeometry>
        </mxCell>
        <mxCell id="9rxSLe53cnxC0N_pLlHW-68" value="" style="rhombus;whiteSpace=wrap;html=1;" vertex="1" parent="1">
          <mxGeometry x="550" y="600" width="80" height="80" as="geometry" />
        </mxCell>
        <mxCell id="9rxSLe53cnxC0N_pLlHW-69" value="" style="endArrow=none;html=1;rounded=0;exitX=0.25;exitY=0;exitDx=0;exitDy=0;" edge="1" parent="1" source="9rxSLe53cnxC0N_pLlHW-22">
          <mxGeometry width="50" height="50" relative="1" as="geometry">
            <mxPoint x="380" y="620" as="sourcePoint" />
            <mxPoint x="380" y="610" as="targetPoint" />
          </mxGeometry>
        </mxCell>
        <mxCell id="9rxSLe53cnxC0N_pLlHW-70" value="" style="rhombus;whiteSpace=wrap;html=1;" vertex="1" parent="1">
          <mxGeometry x="340" y="530" width="80" height="80" as="geometry" />
        </mxCell>
        <mxCell id="9rxSLe53cnxC0N_pLlHW-72" value="" style="endArrow=none;html=1;rounded=0;entryX=0.883;entryY=-0.01;entryDx=0;entryDy=0;entryPerimeter=0;" edge="1" parent="1" target="9rxSLe53cnxC0N_pLlHW-22">
          <mxGeometry width="50" height="50" relative="1" as="geometry">
            <mxPoint x="480" y="580" as="sourcePoint" />
            <mxPoint x="430" y="470" as="targetPoint" />
          </mxGeometry>
        </mxCell>
        <mxCell id="9rxSLe53cnxC0N_pLlHW-73" value="" style="rhombus;whiteSpace=wrap;html=1;" vertex="1" parent="1">
          <mxGeometry x="430" y="530" width="70" height="80" as="geometry" />
        </mxCell>
        <mxCell id="9rxSLe53cnxC0N_pLlHW-74" value="" style="endArrow=none;html=1;rounded=0;exitX=0.5;exitY=0;exitDx=0;exitDy=0;entryX=0;entryY=1;entryDx=0;entryDy=0;entryPerimeter=0;" edge="1" parent="1" source="9rxSLe53cnxC0N_pLlHW-73" target="9rxSLe53cnxC0N_pLlHW-48">
          <mxGeometry width="50" height="50" relative="1" as="geometry">
            <mxPoint x="380" y="520" as="sourcePoint" />
            <mxPoint x="480" y="370.79998779296875" as="targetPoint" />
          </mxGeometry>
        </mxCell>
        <mxCell id="9rxSLe53cnxC0N_pLlHW-75" value="" style="endArrow=none;html=1;rounded=0;entryX=0.372;entryY=1.03;entryDx=0;entryDy=0;entryPerimeter=0;" edge="1" parent="1" target="9rxSLe53cnxC0N_pLlHW-22">
          <mxGeometry width="50" height="50" relative="1" as="geometry">
            <mxPoint x="400" y="830" as="sourcePoint" />
            <mxPoint x="430" y="770" as="targetPoint" />
          </mxGeometry>
        </mxCell>
        <mxCell id="9rxSLe53cnxC0N_pLlHW-76" value="" style="rhombus;whiteSpace=wrap;html=1;" vertex="1" parent="1">
          <mxGeometry x="360" y="760" width="80" height="80" as="geometry" />
        </mxCell>
        <mxCell id="9rxSLe53cnxC0N_pLlHW-77" value="" style="endArrow=none;html=1;rounded=0;exitX=0;exitY=1;exitDx=0;exitDy=0;entryX=1;entryY=0.5;entryDx=0;entryDy=0;" edge="1" parent="1" source="9rxSLe53cnxC0N_pLlHW-51" target="9rxSLe53cnxC0N_pLlHW-170">
          <mxGeometry width="50" height="50" relative="1" as="geometry">
            <mxPoint x="380" y="820" as="sourcePoint" />
            <mxPoint x="430" y="770" as="targetPoint" />
            <Array as="points">
              <mxPoint x="-20" y="910" />
            </Array>
          </mxGeometry>
        </mxCell>
        <mxCell id="9rxSLe53cnxC0N_pLlHW-78" value="" style="endArrow=none;html=1;rounded=0;entryX=0.833;entryY=1.23;entryDx=0;entryDy=0;entryPerimeter=0;" edge="1" parent="1" target="9rxSLe53cnxC0N_pLlHW-22">
          <mxGeometry width="50" height="50" relative="1" as="geometry">
            <mxPoint x="520" y="1040" as="sourcePoint" />
            <mxPoint x="430" y="870" as="targetPoint" />
          </mxGeometry>
        </mxCell>
        <mxCell id="9rxSLe53cnxC0N_pLlHW-79" value="" style="rhombus;whiteSpace=wrap;html=1;" vertex="1" parent="1">
          <mxGeometry x="480" y="1030" width="80" height="80" as="geometry" />
        </mxCell>
        <mxCell id="9rxSLe53cnxC0N_pLlHW-80" value="" style="endArrow=none;html=1;rounded=0;exitX=0.5;exitY=0;exitDx=0;exitDy=0;" edge="1" parent="1" source="9rxSLe53cnxC0N_pLlHW-57" target="9rxSLe53cnxC0N_pLlHW-79">
          <mxGeometry width="50" height="50" relative="1" as="geometry">
            <mxPoint x="380" y="1110" as="sourcePoint" />
            <mxPoint x="430" y="1070" as="targetPoint" />
          </mxGeometry>
        </mxCell>
        <mxCell id="9rxSLe53cnxC0N_pLlHW-81" value="" style="endArrow=none;html=1;rounded=0;entryX=0.367;entryY=0.95;entryDx=0;entryDy=0;entryPerimeter=0;" edge="1" parent="1" target="9rxSLe53cnxC0N_pLlHW-22">
          <mxGeometry width="50" height="50" relative="1" as="geometry">
            <mxPoint x="310" y="750" as="sourcePoint" />
            <mxPoint x="430" y="870" as="targetPoint" />
          </mxGeometry>
        </mxCell>
        <mxCell id="9rxSLe53cnxC0N_pLlHW-82" value="" style="rhombus;whiteSpace=wrap;html=1;" vertex="1" parent="1">
          <mxGeometry x="250" y="710" width="80" height="80" as="geometry" />
        </mxCell>
        <mxCell id="9rxSLe53cnxC0N_pLlHW-83" value="" style="endArrow=none;html=1;rounded=0;exitX=1;exitY=0.25;exitDx=0;exitDy=0;" edge="1" parent="1" source="9rxSLe53cnxC0N_pLlHW-51">
          <mxGeometry width="50" height="50" relative="1" as="geometry">
            <mxPoint x="210" y="810" as="sourcePoint" />
            <mxPoint x="260" y="760" as="targetPoint" />
          </mxGeometry>
        </mxCell>
        <mxCell id="9rxSLe53cnxC0N_pLlHW-84" value="" style="endArrow=none;html=1;rounded=0;entryX=1;entryY=0.5;entryDx=0;entryDy=0;" edge="1" parent="1" target="9rxSLe53cnxC0N_pLlHW-4">
          <mxGeometry width="50" height="50" relative="1" as="geometry">
            <mxPoint x="280" y="55" as="sourcePoint" />
            <mxPoint x="430" y="270" as="targetPoint" />
          </mxGeometry>
        </mxCell>
        <mxCell id="9rxSLe53cnxC0N_pLlHW-85" value="" style="rhombus;whiteSpace=wrap;html=1;" vertex="1" parent="1">
          <mxGeometry x="280" y="15" width="80" height="80" as="geometry" />
        </mxCell>
        <mxCell id="9rxSLe53cnxC0N_pLlHW-86" value="" style="endArrow=none;html=1;rounded=0;entryX=0.945;entryY=0.61;entryDx=0;entryDy=0;entryPerimeter=0;" edge="1" parent="1" target="9rxSLe53cnxC0N_pLlHW-85">
          <mxGeometry width="50" height="50" relative="1" as="geometry">
            <mxPoint x="440" y="60" as="sourcePoint" />
            <mxPoint x="430" y="90" as="targetPoint" />
          </mxGeometry>
        </mxCell>
        <mxCell id="9rxSLe53cnxC0N_pLlHW-87" value="user_user_permission" style="rounded=0;whiteSpace=wrap;html=1;" vertex="1" parent="1">
          <mxGeometry x="430" y="50" width="120" height="30" as="geometry" />
        </mxCell>
        <mxCell id="9rxSLe53cnxC0N_pLlHW-88" value="" style="endArrow=none;html=1;rounded=0;entryX=1;entryY=1;entryDx=0;entryDy=0;" edge="1" parent="1" target="9rxSLe53cnxC0N_pLlHW-87">
          <mxGeometry width="50" height="50" relative="1" as="geometry">
            <mxPoint x="550" y="200" as="sourcePoint" />
            <mxPoint x="520" y="90" as="targetPoint" />
          </mxGeometry>
        </mxCell>
        <mxCell id="9rxSLe53cnxC0N_pLlHW-89" value="" style="rhombus;whiteSpace=wrap;html=1;" vertex="1" parent="1">
          <mxGeometry x="520" y="187.5" width="80" height="80" as="geometry" />
        </mxCell>
        <mxCell id="9rxSLe53cnxC0N_pLlHW-90" value="" style="endArrow=none;html=1;rounded=0;exitX=0;exitY=0.25;exitDx=0;exitDy=0;" edge="1" parent="1" source="9rxSLe53cnxC0N_pLlHW-35" target="9rxSLe53cnxC0N_pLlHW-89">
          <mxGeometry width="50" height="50" relative="1" as="geometry">
            <mxPoint x="380" y="280" as="sourcePoint" />
            <mxPoint x="430" y="230" as="targetPoint" />
          </mxGeometry>
        </mxCell>
        <mxCell id="9rxSLe53cnxC0N_pLlHW-91" value="" style="endArrow=none;html=1;rounded=0;exitX=0.5;exitY=0;exitDx=0;exitDy=0;" edge="1" parent="1" source="9rxSLe53cnxC0N_pLlHW-48" target="9rxSLe53cnxC0N_pLlHW-89">
          <mxGeometry width="50" height="50" relative="1" as="geometry">
            <mxPoint x="380" y="580" as="sourcePoint" />
            <mxPoint x="420" y="530" as="targetPoint" />
          </mxGeometry>
        </mxCell>
        <mxCell id="9rxSLe53cnxC0N_pLlHW-92" value="" style="endArrow=none;html=1;rounded=0;" edge="1" parent="1">
          <mxGeometry width="50" height="50" relative="1" as="geometry">
            <mxPoint x="620" y="800" as="sourcePoint" />
            <mxPoint x="490" y="700" as="targetPoint" />
            <Array as="points">
              <mxPoint x="490" y="700" />
            </Array>
          </mxGeometry>
        </mxCell>
        <mxCell id="9rxSLe53cnxC0N_pLlHW-93" value="" style="rhombus;whiteSpace=wrap;html=1;" vertex="1" parent="1">
          <mxGeometry x="600" y="780" width="80" height="80" as="geometry" />
        </mxCell>
        <mxCell id="9rxSLe53cnxC0N_pLlHW-94" value="" style="endArrow=none;html=1;rounded=0;" edge="1" parent="1" target="9rxSLe53cnxC0N_pLlHW-93">
          <mxGeometry width="50" height="50" relative="1" as="geometry">
            <mxPoint x="700" y="950" as="sourcePoint" />
            <mxPoint x="430" y="730" as="targetPoint" />
          </mxGeometry>
        </mxCell>
        <mxCell id="9rxSLe53cnxC0N_pLlHW-95" value="view" style="rounded=0;whiteSpace=wrap;html=1;" vertex="1" parent="1">
          <mxGeometry x="660" y="920" width="120" height="30" as="geometry" />
        </mxCell>
        <mxCell id="9rxSLe53cnxC0N_pLlHW-96" value="" style="endArrow=none;html=1;rounded=0;entryX=0;entryY=1;entryDx=0;entryDy=0;" edge="1" parent="1" target="9rxSLe53cnxC0N_pLlHW-50">
          <mxGeometry width="50" height="50" relative="1" as="geometry">
            <mxPoint x="50" y="920" as="sourcePoint" />
            <mxPoint x="430" y="730" as="targetPoint" />
          </mxGeometry>
        </mxCell>
        <mxCell id="9rxSLe53cnxC0N_pLlHW-97" value="" style="rhombus;whiteSpace=wrap;html=1;" vertex="1" parent="1">
          <mxGeometry x="30" y="880" width="80" height="80" as="geometry" />
        </mxCell>
        <mxCell id="9rxSLe53cnxC0N_pLlHW-99" style="edgeStyle=none;rounded=0;orthogonalLoop=1;jettySize=auto;html=1;exitX=1;exitY=1;exitDx=0;exitDy=0;" edge="1" parent="1" source="9rxSLe53cnxC0N_pLlHW-97" target="9rxSLe53cnxC0N_pLlHW-97">
          <mxGeometry relative="1" as="geometry" />
        </mxCell>
        <mxCell id="9rxSLe53cnxC0N_pLlHW-100" value="" style="endArrow=none;html=1;rounded=0;exitX=1;exitY=1;exitDx=0;exitDy=0;entryX=0;entryY=0.5;entryDx=0;entryDy=0;" edge="1" parent="1" source="9rxSLe53cnxC0N_pLlHW-97" target="9rxSLe53cnxC0N_pLlHW-57">
          <mxGeometry width="50" height="50" relative="1" as="geometry">
            <mxPoint x="380" y="1080" as="sourcePoint" />
            <mxPoint x="430" y="1030" as="targetPoint" />
          </mxGeometry>
        </mxCell>
        <mxCell id="9rxSLe53cnxC0N_pLlHW-101" value="" style="endArrow=none;html=1;rounded=0;" edge="1" parent="1">
          <mxGeometry width="50" height="50" relative="1" as="geometry">
            <mxPoint x="250" y="830" as="sourcePoint" />
            <mxPoint x="170" y="590" as="targetPoint" />
          </mxGeometry>
        </mxCell>
        <mxCell id="9rxSLe53cnxC0N_pLlHW-102" value="" style="rhombus;whiteSpace=wrap;html=1;" vertex="1" parent="1">
          <mxGeometry x="220" y="790" width="80" height="80" as="geometry" />
        </mxCell>
        <mxCell id="9rxSLe53cnxC0N_pLlHW-103" value="" style="endArrow=none;html=1;rounded=0;exitX=0.705;exitY=0.843;exitDx=0;exitDy=0;exitPerimeter=0;entryX=0;entryY=0.25;entryDx=0;entryDy=0;" edge="1" parent="1" source="9rxSLe53cnxC0N_pLlHW-102" target="9rxSLe53cnxC0N_pLlHW-58">
          <mxGeometry width="50" height="50" relative="1" as="geometry">
            <mxPoint x="380" y="840" as="sourcePoint" />
            <mxPoint x="350" y="950" as="targetPoint" />
          </mxGeometry>
        </mxCell>
        <mxCell id="9rxSLe53cnxC0N_pLlHW-107" value="" style="endArrow=none;html=1;rounded=0;" edge="1" parent="1">
          <mxGeometry width="50" height="50" relative="1" as="geometry">
            <mxPoint x="70" y="100" as="sourcePoint" />
            <mxPoint x="105" y="70" as="targetPoint" />
          </mxGeometry>
        </mxCell>
        <mxCell id="9rxSLe53cnxC0N_pLlHW-108" value="" style="ellipse;whiteSpace=wrap;html=1;" vertex="1" parent="1">
          <mxGeometry y="90" width="80" height="40" as="geometry" />
        </mxCell>
        <mxCell id="9rxSLe53cnxC0N_pLlHW-109" value="" style="endArrow=none;html=1;rounded=0;entryX=0.25;entryY=0;entryDx=0;entryDy=0;" edge="1" parent="1" target="9rxSLe53cnxC0N_pLlHW-4">
          <mxGeometry width="50" height="50" relative="1" as="geometry">
            <mxPoint x="60" y="30" as="sourcePoint" />
            <mxPoint x="65" y="30" as="targetPoint" />
          </mxGeometry>
        </mxCell>
        <mxCell id="9rxSLe53cnxC0N_pLlHW-110" value="" style="ellipse;whiteSpace=wrap;html=1;" vertex="1" parent="1">
          <mxGeometry x="20" y="-50" width="50" height="80" as="geometry" />
        </mxCell>
        <mxCell id="9rxSLe53cnxC0N_pLlHW-111" value="" style="ellipse;whiteSpace=wrap;html=1;" vertex="1" parent="1">
          <mxGeometry x="80" y="-110" width="80" height="60" as="geometry" />
        </mxCell>
        <mxCell id="9rxSLe53cnxC0N_pLlHW-112" value="" style="ellipse;whiteSpace=wrap;html=1;" vertex="1" parent="1">
          <mxGeometry x="140" y="-60" width="60" height="50" as="geometry" />
        </mxCell>
        <mxCell id="9rxSLe53cnxC0N_pLlHW-113" value="" style="endArrow=none;html=1;rounded=0;entryX=0.5;entryY=1;entryDx=0;entryDy=0;exitX=0.597;exitY=0;exitDx=0;exitDy=0;exitPerimeter=0;" edge="1" parent="1" source="9rxSLe53cnxC0N_pLlHW-4" target="9rxSLe53cnxC0N_pLlHW-111">
          <mxGeometry width="50" height="50" relative="1" as="geometry">
            <mxPoint x="110" y="30" as="sourcePoint" />
            <mxPoint x="430" y="130" as="targetPoint" />
            <Array as="points">
              <mxPoint x="110" y="-50" />
            </Array>
          </mxGeometry>
        </mxCell>
        <mxCell id="9rxSLe53cnxC0N_pLlHW-115" value="" style="endArrow=none;html=1;rounded=0;entryX=1;entryY=0;entryDx=0;entryDy=0;exitX=0.5;exitY=1;exitDx=0;exitDy=0;" edge="1" parent="1" source="9rxSLe53cnxC0N_pLlHW-112" target="9rxSLe53cnxC0N_pLlHW-4">
          <mxGeometry width="50" height="50" relative="1" as="geometry">
            <mxPoint x="380" y="180" as="sourcePoint" />
            <mxPoint x="430" y="130" as="targetPoint" />
          </mxGeometry>
        </mxCell>
        <mxCell id="9rxSLe53cnxC0N_pLlHW-116" value="" style="ellipse;whiteSpace=wrap;html=1;" vertex="1" parent="1">
          <mxGeometry x="410" y="-130" width="80" height="60" as="geometry" />
        </mxCell>
        <mxCell id="9rxSLe53cnxC0N_pLlHW-117" value="" style="ellipse;whiteSpace=wrap;html=1;" vertex="1" parent="1">
          <mxGeometry x="540" y="-70" width="120" height="30" as="geometry" />
        </mxCell>
        <mxCell id="9rxSLe53cnxC0N_pLlHW-119" value="" style="ellipse;whiteSpace=wrap;html=1;" vertex="1" parent="1">
          <mxGeometry x="320" y="-70" width="80" height="40" as="geometry" />
        </mxCell>
        <mxCell id="9rxSLe53cnxC0N_pLlHW-121" value="" style="endArrow=none;html=1;rounded=0;entryX=0;entryY=0;entryDx=0;entryDy=0;exitX=0.735;exitY=1.07;exitDx=0;exitDy=0;exitPerimeter=0;" edge="1" parent="1" source="9rxSLe53cnxC0N_pLlHW-119" target="9rxSLe53cnxC0N_pLlHW-87">
          <mxGeometry width="50" height="50" relative="1" as="geometry">
            <mxPoint x="380" y="180" as="sourcePoint" />
            <mxPoint x="430" y="130" as="targetPoint" />
          </mxGeometry>
        </mxCell>
        <mxCell id="9rxSLe53cnxC0N_pLlHW-122" value="" style="endArrow=none;html=1;rounded=0;entryX=0.413;entryY=-0.093;entryDx=0;entryDy=0;entryPerimeter=0;exitX=0.65;exitY=1.02;exitDx=0;exitDy=0;exitPerimeter=0;" edge="1" parent="1" source="9rxSLe53cnxC0N_pLlHW-116" target="9rxSLe53cnxC0N_pLlHW-87">
          <mxGeometry width="50" height="50" relative="1" as="geometry">
            <mxPoint x="380" y="180" as="sourcePoint" />
            <mxPoint x="430" y="130" as="targetPoint" />
          </mxGeometry>
        </mxCell>
        <mxCell id="9rxSLe53cnxC0N_pLlHW-123" value="" style="endArrow=none;html=1;rounded=0;entryX=1;entryY=0;entryDx=0;entryDy=0;exitX=0.25;exitY=1.027;exitDx=0;exitDy=0;exitPerimeter=0;" edge="1" parent="1" source="9rxSLe53cnxC0N_pLlHW-117" target="9rxSLe53cnxC0N_pLlHW-87">
          <mxGeometry width="50" height="50" relative="1" as="geometry">
            <mxPoint x="380" y="180" as="sourcePoint" />
            <mxPoint x="430" y="130" as="targetPoint" />
          </mxGeometry>
        </mxCell>
        <mxCell id="9rxSLe53cnxC0N_pLlHW-124" value="" style="ellipse;whiteSpace=wrap;html=1;" vertex="1" parent="1">
          <mxGeometry x="10" y="140" width="50" height="80" as="geometry" />
        </mxCell>
        <mxCell id="9rxSLe53cnxC0N_pLlHW-125" value="" style="endArrow=none;html=1;rounded=0;exitX=0;exitY=0;exitDx=0;exitDy=0;" edge="1" parent="1" source="9rxSLe53cnxC0N_pLlHW-7">
          <mxGeometry width="50" height="50" relative="1" as="geometry">
            <mxPoint x="-10" y="267.5" as="sourcePoint" />
            <mxPoint x="40" y="217.5" as="targetPoint" />
          </mxGeometry>
        </mxCell>
        <mxCell id="9rxSLe53cnxC0N_pLlHW-126" value="" style="ellipse;whiteSpace=wrap;html=1;" vertex="1" parent="1">
          <mxGeometry x="110" y="135" width="50" height="80" as="geometry" />
        </mxCell>
        <mxCell id="9rxSLe53cnxC0N_pLlHW-127" value="" style="endArrow=none;html=1;rounded=0;exitX=0.75;exitY=0;exitDx=0;exitDy=0;entryX=0.5;entryY=1;entryDx=0;entryDy=0;" edge="1" parent="1" source="9rxSLe53cnxC0N_pLlHW-7" target="9rxSLe53cnxC0N_pLlHW-126">
          <mxGeometry width="50" height="50" relative="1" as="geometry">
            <mxPoint x="380" y="380" as="sourcePoint" />
            <mxPoint x="430" y="330" as="targetPoint" />
          </mxGeometry>
        </mxCell>
        <mxCell id="9rxSLe53cnxC0N_pLlHW-128" value="" style="ellipse;whiteSpace=wrap;html=1;" vertex="1" parent="1">
          <mxGeometry x="330" y="292.5" width="70" height="80" as="geometry" />
        </mxCell>
        <mxCell id="9rxSLe53cnxC0N_pLlHW-129" value="" style="endArrow=none;html=1;rounded=0;entryX=0.674;entryY=0.994;entryDx=0;entryDy=0;entryPerimeter=0;exitX=0.5;exitY=0;exitDx=0;exitDy=0;" edge="1" parent="1" source="9rxSLe53cnxC0N_pLlHW-8" target="9rxSLe53cnxC0N_pLlHW-128">
          <mxGeometry width="50" height="50" relative="1" as="geometry">
            <mxPoint x="380" y="430" as="sourcePoint" />
            <mxPoint x="430" y="430" as="targetPoint" />
          </mxGeometry>
        </mxCell>
        <mxCell id="9rxSLe53cnxC0N_pLlHW-130" value="" style="ellipse;whiteSpace=wrap;html=1;" vertex="1" parent="1">
          <mxGeometry x="370" y="215" width="80" height="80" as="geometry" />
        </mxCell>
        <mxCell id="9rxSLe53cnxC0N_pLlHW-131" value="" style="endArrow=none;html=1;rounded=0;entryX=0.5;entryY=1;entryDx=0;entryDy=0;exitX=0.75;exitY=0;exitDx=0;exitDy=0;" edge="1" parent="1" source="9rxSLe53cnxC0N_pLlHW-8" target="9rxSLe53cnxC0N_pLlHW-130">
          <mxGeometry width="50" height="50" relative="1" as="geometry">
            <mxPoint x="410" y="430" as="sourcePoint" />
            <mxPoint x="430" y="330" as="targetPoint" />
          </mxGeometry>
        </mxCell>
        <mxCell id="9rxSLe53cnxC0N_pLlHW-132" value="" style="ellipse;whiteSpace=wrap;html=1;" vertex="1" parent="1">
          <mxGeometry x="170" y="430" width="70" height="80" as="geometry" />
        </mxCell>
        <mxCell id="9rxSLe53cnxC0N_pLlHW-133" value="" style="endArrow=none;html=1;rounded=0;exitX=0;exitY=1;exitDx=0;exitDy=0;" edge="1" parent="1" source="9rxSLe53cnxC0N_pLlHW-8">
          <mxGeometry width="50" height="50" relative="1" as="geometry">
            <mxPoint x="380" y="380" as="sourcePoint" />
            <mxPoint x="260" y="460" as="targetPoint" />
            <Array as="points">
              <mxPoint x="240" y="460" />
            </Array>
          </mxGeometry>
        </mxCell>
        <mxCell id="9rxSLe53cnxC0N_pLlHW-134" value="" style="endArrow=none;html=1;rounded=0;entryX=0;entryY=0.25;entryDx=0;entryDy=0;startArrow=none;" edge="1" parent="1" source="9rxSLe53cnxC0N_pLlHW-137" target="9rxSLe53cnxC0N_pLlHW-48">
          <mxGeometry width="50" height="50" relative="1" as="geometry">
            <mxPoint x="450" y="210" as="sourcePoint" />
            <mxPoint x="430" y="430" as="targetPoint" />
          </mxGeometry>
        </mxCell>
        <mxCell id="9rxSLe53cnxC0N_pLlHW-135" value="" style="endArrow=none;html=1;rounded=0;entryX=0.07;entryY=-0.093;entryDx=0;entryDy=0;entryPerimeter=0;" edge="1" parent="1" target="9rxSLe53cnxC0N_pLlHW-48">
          <mxGeometry width="50" height="50" relative="1" as="geometry">
            <mxPoint x="470" y="130" as="sourcePoint" />
            <mxPoint x="430" y="330" as="targetPoint" />
          </mxGeometry>
        </mxCell>
        <mxCell id="9rxSLe53cnxC0N_pLlHW-136" value="" style="endArrow=none;html=1;rounded=0;entryX=0;entryY=0;entryDx=0;entryDy=0;" edge="1" parent="1" target="9rxSLe53cnxC0N_pLlHW-48">
          <mxGeometry width="50" height="50" relative="1" as="geometry">
            <mxPoint x="510" y="200" as="sourcePoint" />
            <mxPoint x="430" y="330" as="targetPoint" />
          </mxGeometry>
        </mxCell>
        <mxCell id="9rxSLe53cnxC0N_pLlHW-138" value="" style="ellipse;whiteSpace=wrap;html=1;" vertex="1" parent="1">
          <mxGeometry x="490" y="120" width="50" height="80" as="geometry" />
        </mxCell>
        <mxCell id="9rxSLe53cnxC0N_pLlHW-139" value="" style="endArrow=none;html=1;rounded=0;entryX=0;entryY=0.25;entryDx=0;entryDy=0;" edge="1" parent="1" target="9rxSLe53cnxC0N_pLlHW-137">
          <mxGeometry width="50" height="50" relative="1" as="geometry">
            <mxPoint x="450" y="210" as="sourcePoint" />
            <mxPoint x="480" y="337.5" as="targetPoint" />
          </mxGeometry>
        </mxCell>
        <mxCell id="9rxSLe53cnxC0N_pLlHW-137" value="" style="ellipse;whiteSpace=wrap;html=1;" vertex="1" parent="1">
          <mxGeometry x="410" y="135" width="60" height="80" as="geometry" />
        </mxCell>
        <mxCell id="9rxSLe53cnxC0N_pLlHW-140" value="" style="ellipse;whiteSpace=wrap;html=1;" vertex="1" parent="1">
          <mxGeometry x="420" y="90" width="90" height="50" as="geometry" />
        </mxCell>
        <mxCell id="9rxSLe53cnxC0N_pLlHW-141" value="" style="ellipse;whiteSpace=wrap;html=1;" vertex="1" parent="1">
          <mxGeometry x="680" y="530" width="120" height="50" as="geometry" />
        </mxCell>
        <mxCell id="9rxSLe53cnxC0N_pLlHW-142" value="" style="ellipse;whiteSpace=wrap;html=1;" vertex="1" parent="1">
          <mxGeometry x="660" y="600" width="120" height="50" as="geometry" />
        </mxCell>
        <mxCell id="9rxSLe53cnxC0N_pLlHW-143" value="" style="endArrow=none;html=1;rounded=0;entryX=0.657;entryY=1.08;entryDx=0;entryDy=0;entryPerimeter=0;exitX=0;exitY=0;exitDx=0;exitDy=0;" edge="1" parent="1" source="9rxSLe53cnxC0N_pLlHW-141" target="9rxSLe53cnxC0N_pLlHW-48">
          <mxGeometry width="50" height="50" relative="1" as="geometry">
            <mxPoint x="380" y="480" as="sourcePoint" />
            <mxPoint x="430" y="430" as="targetPoint" />
          </mxGeometry>
        </mxCell>
        <mxCell id="9rxSLe53cnxC0N_pLlHW-144" value="" style="endArrow=none;html=1;rounded=0;entryX=0.643;entryY=1.053;entryDx=0;entryDy=0;entryPerimeter=0;" edge="1" parent="1" source="9rxSLe53cnxC0N_pLlHW-142" target="9rxSLe53cnxC0N_pLlHW-48">
          <mxGeometry width="50" height="50" relative="1" as="geometry">
            <mxPoint x="380" y="480" as="sourcePoint" />
            <mxPoint x="430" y="430" as="targetPoint" />
          </mxGeometry>
        </mxCell>
        <mxCell id="9rxSLe53cnxC0N_pLlHW-145" value="" style="endArrow=none;html=1;rounded=0;entryX=0.75;entryY=1;entryDx=0;entryDy=0;" edge="1" parent="1" target="9rxSLe53cnxC0N_pLlHW-22">
          <mxGeometry width="50" height="50" relative="1" as="geometry">
            <mxPoint x="710" y="1100" as="sourcePoint" />
            <mxPoint x="430" y="730" as="targetPoint" />
          </mxGeometry>
        </mxCell>
        <mxCell id="9rxSLe53cnxC0N_pLlHW-146" value="" style="endArrow=none;html=1;rounded=0;" edge="1" parent="1">
          <mxGeometry width="50" height="50" relative="1" as="geometry">
            <mxPoint x="580" y="1040" as="sourcePoint" />
            <mxPoint x="460" y="700" as="targetPoint" />
          </mxGeometry>
        </mxCell>
        <mxCell id="9rxSLe53cnxC0N_pLlHW-147" value="" style="endArrow=none;html=1;rounded=0;entryX=0.697;entryY=1.04;entryDx=0;entryDy=0;entryPerimeter=0;" edge="1" parent="1" target="9rxSLe53cnxC0N_pLlHW-22">
          <mxGeometry width="50" height="50" relative="1" as="geometry">
            <mxPoint x="690" y="990" as="sourcePoint" />
            <mxPoint x="430" y="830" as="targetPoint" />
          </mxGeometry>
        </mxCell>
        <mxCell id="9rxSLe53cnxC0N_pLlHW-148" value="" style="ellipse;whiteSpace=wrap;html=1;" vertex="1" parent="1">
          <mxGeometry x="570" y="1030" width="90" height="80" as="geometry" />
        </mxCell>
        <mxCell id="9rxSLe53cnxC0N_pLlHW-149" value="" style="ellipse;whiteSpace=wrap;html=1;" vertex="1" parent="1">
          <mxGeometry x="680" y="970" width="120" height="80" as="geometry" />
        </mxCell>
        <mxCell id="9rxSLe53cnxC0N_pLlHW-150" value="" style="ellipse;whiteSpace=wrap;html=1;" vertex="1" parent="1">
          <mxGeometry x="690" y="1090" width="120" height="80" as="geometry" />
        </mxCell>
        <mxCell id="9rxSLe53cnxC0N_pLlHW-151" value="" style="endArrow=none;html=1;rounded=0;" edge="1" parent="1">
          <mxGeometry width="50" height="50" relative="1" as="geometry">
            <mxPoint x="335" y="1010" as="sourcePoint" />
            <mxPoint x="385" y="960" as="targetPoint" />
          </mxGeometry>
        </mxCell>
        <mxCell id="9rxSLe53cnxC0N_pLlHW-153" value="" style="endArrow=none;html=1;rounded=0;entryX=0.5;entryY=1;entryDx=0;entryDy=0;" edge="1" parent="1" target="9rxSLe53cnxC0N_pLlHW-58">
          <mxGeometry width="50" height="50" relative="1" as="geometry">
            <mxPoint x="380" y="1020" as="sourcePoint" />
            <mxPoint x="430" y="930" as="targetPoint" />
            <Array as="points">
              <mxPoint x="380" y="1020" />
            </Array>
          </mxGeometry>
        </mxCell>
        <mxCell id="9rxSLe53cnxC0N_pLlHW-154" value="" style="ellipse;whiteSpace=wrap;html=1;" vertex="1" parent="1">
          <mxGeometry x="260" y="990" width="90" height="80" as="geometry" />
        </mxCell>
        <mxCell id="9rxSLe53cnxC0N_pLlHW-155" value="" style="ellipse;whiteSpace=wrap;html=1;" vertex="1" parent="1">
          <mxGeometry x="350" y="1020" width="50" height="80" as="geometry" />
        </mxCell>
        <mxCell id="9rxSLe53cnxC0N_pLlHW-157" value="" style="endArrow=none;html=1;rounded=0;" edge="1" parent="1">
          <mxGeometry width="50" height="50" relative="1" as="geometry">
            <mxPoint x="430" y="1010" as="sourcePoint" />
            <mxPoint x="480" y="960" as="targetPoint" />
          </mxGeometry>
        </mxCell>
        <mxCell id="9rxSLe53cnxC0N_pLlHW-158" value="" style="ellipse;whiteSpace=wrap;html=1;" vertex="1" parent="1">
          <mxGeometry x="420" y="990" width="50" height="80" as="geometry" />
        </mxCell>
        <mxCell id="9rxSLe53cnxC0N_pLlHW-159" value="" style="endArrow=none;html=1;rounded=0;" edge="1" parent="1">
          <mxGeometry width="50" height="50" relative="1" as="geometry">
            <mxPoint x="350" y="1250" as="sourcePoint" />
            <mxPoint x="400" y="1200" as="targetPoint" />
          </mxGeometry>
        </mxCell>
        <mxCell id="9rxSLe53cnxC0N_pLlHW-160" value="" style="endArrow=none;html=1;rounded=0;exitX=0.577;exitY=0.96;exitDx=0;exitDy=0;exitPerimeter=0;" edge="1" parent="1" source="9rxSLe53cnxC0N_pLlHW-57">
          <mxGeometry width="50" height="50" relative="1" as="geometry">
            <mxPoint x="380" y="1180" as="sourcePoint" />
            <mxPoint x="450" y="1290" as="targetPoint" />
          </mxGeometry>
        </mxCell>
        <mxCell id="9rxSLe53cnxC0N_pLlHW-161" value="" style="endArrow=none;html=1;rounded=0;exitX=0.75;exitY=1;exitDx=0;exitDy=0;" edge="1" parent="1" source="9rxSLe53cnxC0N_pLlHW-57">
          <mxGeometry width="50" height="50" relative="1" as="geometry">
            <mxPoint x="380" y="1180" as="sourcePoint" />
            <mxPoint x="520" y="1260" as="targetPoint" />
          </mxGeometry>
        </mxCell>
        <mxCell id="9rxSLe53cnxC0N_pLlHW-162" value="" style="ellipse;whiteSpace=wrap;html=1;" vertex="1" parent="1">
          <mxGeometry x="250" y="1241" width="120" height="49" as="geometry" />
        </mxCell>
        <mxCell id="9rxSLe53cnxC0N_pLlHW-163" value="" style="ellipse;whiteSpace=wrap;html=1;" vertex="1" parent="1">
          <mxGeometry x="380" y="1280" width="120" height="50" as="geometry" />
        </mxCell>
        <mxCell id="9rxSLe53cnxC0N_pLlHW-164" value="" style="ellipse;whiteSpace=wrap;html=1;" vertex="1" parent="1">
          <mxGeometry x="510" y="1241" width="80" height="80" as="geometry" />
        </mxCell>
        <mxCell id="9rxSLe53cnxC0N_pLlHW-165" value="" style="endArrow=none;html=1;rounded=0;" edge="1" parent="1">
          <mxGeometry width="50" height="50" relative="1" as="geometry">
            <mxPoint x="270" y="930" as="sourcePoint" />
            <mxPoint x="150" y="940" as="targetPoint" />
            <Array as="points">
              <mxPoint x="120" y="830" />
            </Array>
          </mxGeometry>
        </mxCell>
        <mxCell id="9rxSLe53cnxC0N_pLlHW-166" value="" style="ellipse;whiteSpace=wrap;html=1;" vertex="1" parent="1">
          <mxGeometry x="140" y="920" width="90" height="50" as="geometry" />
        </mxCell>
        <mxCell id="9rxSLe53cnxC0N_pLlHW-167" value="" style="ellipse;whiteSpace=wrap;html=1;" vertex="1" parent="1">
          <mxGeometry x="250" y="920" width="80" height="40" as="geometry" />
        </mxCell>
        <mxCell id="9rxSLe53cnxC0N_pLlHW-168" value="" style="ellipse;whiteSpace=wrap;html=1;" vertex="1" parent="1">
          <mxGeometry x="-130" y="775" width="100" height="65" as="geometry" />
        </mxCell>
        <mxCell id="9rxSLe53cnxC0N_pLlHW-169" value="" style="endArrow=none;html=1;rounded=0;" edge="1" parent="1">
          <mxGeometry width="50" height="50" relative="1" as="geometry">
            <mxPoint x="80" y="820" as="sourcePoint" />
            <mxPoint x="80" y="820" as="targetPoint" />
            <Array as="points">
              <mxPoint x="-30" y="820" />
            </Array>
          </mxGeometry>
        </mxCell>
        <mxCell id="9rxSLe53cnxC0N_pLlHW-170" value="" style="ellipse;whiteSpace=wrap;html=1;" vertex="1" parent="1">
          <mxGeometry x="-140" y="890" width="120" height="40" as="geometry" />
        </mxCell>
        <mxCell id="9rxSLe53cnxC0N_pLlHW-171" value="" style="endArrow=none;html=1;rounded=0;" edge="1" parent="1">
          <mxGeometry width="50" height="50" relative="1" as="geometry">
            <mxPoint x="380" y="880" as="sourcePoint" />
            <mxPoint x="430" y="830" as="targetPoint" />
          </mxGeometry>
        </mxCell>
      </root>
    </mxGraphModel>
  </diagram>
</mxfile>
